<svg width="41" height="24" viewBox="0 0 41 24" fill="none" xmlns="http://www.w3.org/2000/svg">
<path d="M11 17.46V20.5C11 20.78 11.22 21 11.5 21H14.54C14.67 21 14.8 20.95 14.89 20.85L25.81 9.94L22.06 6.19L11.15 17.1C11.05 17.2 11 17.32 11 17.46ZM28.71 7.04C29.1 6.65 29.1 6.02 28.71 5.63L26.37 3.29C25.98 2.9 25.35 2.9 24.96 3.29L23.13 5.12L26.88 8.87L28.71 7.04Z" fill="#051423"/>
<path d="M9.40128 6.81818V17H7.5419L3.11222 10.5916H3.03764V17H0.884943V6.81818H2.77415L7.16903 13.2216H7.25852V6.81818H9.40128ZM14.5904 17.1491C13.8181 17.1491 13.1503 16.9851 12.5868 16.657C12.0267 16.3255 11.5942 15.8648 11.2892 15.2749C10.9843 14.6816 10.8319 13.9938 10.8319 13.2116C10.8319 12.4228 10.9843 11.7334 11.2892 11.1435C11.5942 10.5502 12.0267 10.0895 12.5868 9.76136C13.1503 9.42992 13.8181 9.2642 14.5904 9.2642C15.3626 9.2642 16.0288 9.42992 16.589 9.76136C17.1524 10.0895 17.5866 10.5502 17.8915 11.1435C18.1964 11.7334 18.3489 12.4228 18.3489 13.2116C18.3489 13.9938 18.1964 14.6816 17.8915 15.2749C17.5866 15.8648 17.1524 16.3255 16.589 16.657C16.0288 16.9851 15.3626 17.1491 14.5904 17.1491ZM14.6003 15.5085C14.9516 15.5085 15.245 15.4091 15.4803 15.2102C15.7156 15.008 15.8929 14.733 16.0123 14.3849C16.1349 14.0369 16.1962 13.6409 16.1962 13.1967C16.1962 12.7526 16.1349 12.3565 16.0123 12.0085C15.8929 11.6605 15.7156 11.3854 15.4803 11.1832C15.245 10.9811 14.9516 10.88 14.6003 10.88C14.2457 10.88 13.9474 10.9811 13.7054 11.1832C13.4668 11.3854 13.2862 11.6605 13.1635 12.0085C13.0442 12.3565 12.9846 12.7526 12.9846 13.1967C12.9846 13.6409 13.0442 14.0369 13.1635 14.3849C13.2862 14.733 13.4668 15.008 13.7054 15.2102C13.9474 15.4091 14.2457 15.5085 14.6003 15.5085ZM23.7878 9.36364V10.9545H19.1891V9.36364H23.7878ZM20.2331 7.53409H22.351V14.6534C22.351 14.849 22.3809 15.0014 22.4405 15.1108C22.5002 15.2169 22.583 15.2914 22.6891 15.3345C22.7985 15.3776 22.9244 15.3991 23.0669 15.3991C23.1664 15.3991 23.2658 15.3909 23.3652 15.3743C23.4647 15.3544 23.5409 15.3395 23.5939 15.3295L23.927 16.9055C23.821 16.9387 23.6718 16.9768 23.4796 17.0199C23.2873 17.0663 23.0537 17.0945 22.7786 17.1044C22.2682 17.1243 21.8207 17.0563 21.4363 16.9006C21.0551 16.7448 20.7585 16.5028 20.5463 16.1747C20.3342 15.8466 20.2298 15.4323 20.2331 14.9318V7.53409ZM28.5655 17.1491C27.78 17.1491 27.1039 16.9901 26.5371 16.6719C25.9737 16.3504 25.5395 15.8963 25.2346 15.3097C24.9296 14.7197 24.7772 14.022 24.7772 13.2166C24.7772 12.4311 24.9296 11.7417 25.2346 11.1484C25.5395 10.5552 25.9687 10.0928 26.5222 9.76136C27.079 9.42992 27.7319 9.2642 28.481 9.2642C28.9848 9.2642 29.4538 9.34541 29.888 9.50781C30.3255 9.6669 30.7066 9.9072 31.0314 10.2287C31.3596 10.5502 31.6148 10.9545 31.7971 11.4418C31.9793 11.9257 32.0705 12.4924 32.0705 13.142V13.7237H25.6223V12.4112H30.0769C30.0769 12.1063 30.0106 11.8362 29.878 11.6009C29.7454 11.3655 29.5615 11.1816 29.3262 11.049C29.0942 10.9131 28.824 10.8452 28.5158 10.8452C28.1943 10.8452 27.9093 10.9197 27.6607 11.0689C27.4154 11.2147 27.2232 11.4119 27.084 11.6605C26.9448 11.9058 26.8735 12.1792 26.8702 12.4808V13.7287C26.8702 14.1065 26.9398 14.433 27.079 14.7081C27.2215 14.9832 27.4221 15.1953 27.6806 15.3445C27.9391 15.4936 28.2457 15.5682 28.6003 15.5682C28.8356 15.5682 29.0511 15.535 29.2466 15.4688C29.4422 15.4025 29.6096 15.303 29.7488 15.1705C29.888 15.0379 29.994 14.8755 30.0669 14.6832L32.0257 14.8125C31.9263 15.2831 31.7225 15.6941 31.4142 16.0455C31.1093 16.3935 30.7149 16.6652 30.231 16.8608C29.7504 17.053 29.1953 17.1491 28.5655 17.1491ZM39.8063 11.5412L37.8674 11.6605C37.8342 11.4948 37.763 11.3456 37.6536 11.2131C37.5442 11.0772 37.4 10.9695 37.2211 10.8899C37.0454 10.8071 36.8349 10.7656 36.5897 10.7656C36.2615 10.7656 35.9848 10.8352 35.7594 10.9744C35.534 11.1103 35.4213 11.2926 35.4213 11.5213C35.4213 11.7036 35.4943 11.8577 35.6401 11.9837C35.7859 12.1096 36.0362 12.2107 36.3908 12.2869L37.7729 12.5653C38.5153 12.7178 39.0688 12.9631 39.4334 13.3011C39.798 13.6392 39.9803 14.0833 39.9803 14.6335C39.9803 15.134 39.8328 15.5732 39.5378 15.951C39.2462 16.3288 38.8451 16.6238 38.3347 16.8359C37.8276 17.0447 37.2426 17.1491 36.5797 17.1491C35.5688 17.1491 34.7634 16.9387 34.1635 16.5178C33.5669 16.0935 33.2173 15.5168 33.1145 14.7876L35.1976 14.6783C35.2606 14.9865 35.4131 15.2218 35.655 15.3842C35.897 15.5433 36.2069 15.6229 36.5847 15.6229C36.9559 15.6229 37.2542 15.5516 37.4796 15.4091C37.7083 15.2633 37.8243 15.076 37.8276 14.8473C37.8243 14.6551 37.7431 14.4976 37.584 14.375C37.4249 14.2491 37.1796 14.1529 36.8482 14.0866L35.5257 13.8232C34.78 13.674 34.2248 13.4155 33.8603 13.0476C33.499 12.6797 33.3184 12.2107 33.3184 11.6406C33.3184 11.1501 33.4509 10.7275 33.7161 10.3729C33.9846 10.0182 34.3607 9.74479 34.8446 9.55256C35.3319 9.36032 35.9019 9.2642 36.5549 9.2642C37.5194 9.2642 38.2784 9.46804 38.8319 9.87571C39.3887 10.2834 39.7135 10.8385 39.8063 11.5412Z" fill="#171A1C"/>
</svg>
