<svg width="42" height="42" viewBox="0 0 42 42" fill="none" xmlns="http://www.w3.org/2000/svg">
<path d="M42 21C42 9.40202 32.598 0 21 0C9.40202 0 0 9.40202 0 21C0 32.598 9.40202 42 21 42C32.598 42 42 32.598 42 21Z" fill="white"/>
<path d="M42 12C42 5.37258 36.6274 0 30 0C23.3726 0 18 5.37258 18 12C18 18.6274 23.3726 24 30 24C36.6274 24 42 18.6274 42 12Z" fill="#636B74"/>
<path d="M39 12C39 7.02944 34.9706 3 30 3C25.0294 3 21 7.02944 21 12C21 16.9706 25.0294 21 30 21C34.9706 21 39 16.9706 39 12Z" fill="#051423"/>
<path d="M26.25 5.625C26.25 4.38236 25.2426 3.375 24 3.375C22.7574 3.375 21.75 4.38236 21.75 5.625C21.75 6.86764 22.7574 7.875 24 7.875C25.2426 7.875 26.25 6.86764 26.25 5.625Z" fill="white"/>
</svg>
