<svg width="48" height="48" viewBox="0 0 48 48" fill="none" xmlns="http://www.w3.org/2000/svg">
<rect x="1" y="1" width="46" height="46" rx="5" fill="black" stroke="white" stroke-width="2"/>
<path d="M15 29.46V32.5C15 32.78 15.22 33 15.5 33H18.54C18.67 33 18.8 32.95 18.89 32.85L29.81 21.94L26.06 18.19L15.15 29.1C15.05 29.2 15 29.32 15 29.46ZM32.71 19.04C33.1 18.65 33.1 18.02 32.71 17.63L30.37 15.29C29.98 14.9 29.35 14.9 28.96 15.29L27.13 17.12L30.88 20.87L32.71 19.04V19.04Z" fill="#636B74"/>
<path d="M13.4013 18.8182V29H11.5419L7.11222 22.5916H7.03764V29H4.88494V18.8182H6.77415L11.169 25.2216H11.2585V18.8182H13.4013ZM18.5904 29.1491C17.8181 29.1491 17.1503 28.9851 16.5868 28.657C16.0267 28.3255 15.5942 27.8648 15.2892 27.2749C14.9843 26.6816 14.8319 25.9938 14.8319 25.2116C14.8319 24.4228 14.9843 23.7334 15.2892 23.1435C15.5942 22.5502 16.0267 22.0895 16.5868 21.7614C17.1503 21.4299 17.8181 21.2642 18.5904 21.2642C19.3626 21.2642 20.0288 21.4299 20.589 21.7614C21.1524 22.0895 21.5866 22.5502 21.8915 23.1435C22.1964 23.7334 22.3489 24.4228 22.3489 25.2116C22.3489 25.9938 22.1964 26.6816 21.8915 27.2749C21.5866 27.8648 21.1524 28.3255 20.589 28.657C20.0288 28.9851 19.3626 29.1491 18.5904 29.1491ZM18.6003 27.5085C18.9516 27.5085 19.245 27.4091 19.4803 27.2102C19.7156 27.008 19.8929 26.733 20.0123 26.3849C20.1349 26.0369 20.1962 25.6409 20.1962 25.1967C20.1962 24.7526 20.1349 24.3565 20.0123 24.0085C19.8929 23.6605 19.7156 23.3854 19.4803 23.1832C19.245 22.9811 18.9516 22.88 18.6003 22.88C18.2457 22.88 17.9474 22.9811 17.7054 23.1832C17.4668 23.3854 17.2862 23.6605 17.1635 24.0085C17.0442 24.3565 16.9846 24.7526 16.9846 25.1967C16.9846 25.6409 17.0442 26.0369 17.1635 26.3849C17.2862 26.733 17.4668 27.008 17.7054 27.2102C17.9474 27.4091 18.2457 27.5085 18.6003 27.5085ZM27.7878 21.3636V22.9545H23.1891V21.3636H27.7878ZM24.2331 19.5341H26.351V26.6534C26.351 26.849 26.3809 27.0014 26.4405 27.1108C26.5002 27.2169 26.583 27.2914 26.6891 27.3345C26.7985 27.3776 26.9244 27.3991 27.0669 27.3991C27.1664 27.3991 27.2658 27.3909 27.3652 27.3743C27.4647 27.3544 27.5409 27.3395 27.5939 27.3295L27.927 28.9055C27.821 28.9387 27.6718 28.9768 27.4796 29.0199C27.2873 29.0663 27.0537 29.0945 26.7786 29.1044C26.2682 29.1243 25.8207 29.0563 25.4363 28.9006C25.0551 28.7448 24.7585 28.5028 24.5463 28.1747C24.3342 27.8466 24.2298 27.4323 24.2331 26.9318V19.5341ZM32.5655 29.1491C31.78 29.1491 31.1039 28.9901 30.5371 28.6719C29.9737 28.3504 29.5395 27.8963 29.2346 27.3097C28.9296 26.7197 28.7772 26.022 28.7772 25.2166C28.7772 24.4311 28.9296 23.7417 29.2346 23.1484C29.5395 22.5552 29.9687 22.0928 30.5222 21.7614C31.079 21.4299 31.7319 21.2642 32.481 21.2642C32.9848 21.2642 33.4538 21.3454 33.888 21.5078C34.3255 21.6669 34.7066 21.9072 35.0314 22.2287C35.3596 22.5502 35.6148 22.9545 35.7971 23.4418C35.9793 23.9257 36.0705 24.4924 36.0705 25.142V25.7237H29.6223V24.4112H34.0769C34.0769 24.1063 34.0106 23.8362 33.878 23.6009C33.7454 23.3655 33.5615 23.1816 33.3262 23.049C33.0942 22.9131 32.824 22.8452 32.5158 22.8452C32.1943 22.8452 31.9093 22.9197 31.6607 23.0689C31.4154 23.2147 31.2232 23.4119 31.084 23.6605C30.9448 23.9058 30.8735 24.1792 30.8702 24.4808V25.7287C30.8702 26.1065 30.9398 26.433 31.079 26.7081C31.2215 26.9832 31.4221 27.1953 31.6806 27.3445C31.9391 27.4936 32.2457 27.5682 32.6003 27.5682C32.8356 27.5682 33.0511 27.535 33.2466 27.4688C33.4422 27.4025 33.6096 27.303 33.7488 27.1705C33.888 27.0379 33.994 26.8755 34.0669 26.6832L36.0257 26.8125C35.9263 27.2831 35.7225 27.6941 35.4142 28.0455C35.1093 28.3935 34.7149 28.6652 34.231 28.8608C33.7504 29.053 33.1953 29.1491 32.5655 29.1491ZM43.8063 23.5412L41.8674 23.6605C41.8342 23.4948 41.763 23.3456 41.6536 23.2131C41.5442 23.0772 41.4 22.9695 41.2211 22.8899C41.0454 22.8071 40.8349 22.7656 40.5897 22.7656C40.2615 22.7656 39.9848 22.8352 39.7594 22.9744C39.534 23.1103 39.4213 23.2926 39.4213 23.5213C39.4213 23.7036 39.4943 23.8577 39.6401 23.9837C39.7859 24.1096 40.0362 24.2107 40.3908 24.2869L41.7729 24.5653C42.5153 24.7178 43.0688 24.9631 43.4334 25.3011C43.798 25.6392 43.9803 26.0833 43.9803 26.6335C43.9803 27.134 43.8328 27.5732 43.5378 27.951C43.2462 28.3288 42.8451 28.6238 42.3347 28.8359C41.8276 29.0447 41.2426 29.1491 40.5797 29.1491C39.5688 29.1491 38.7634 28.9387 38.1635 28.5178C37.5669 28.0935 37.2173 27.5168 37.1145 26.7876L39.1976 26.6783C39.2606 26.9865 39.4131 27.2218 39.655 27.3842C39.897 27.5433 40.2069 27.6229 40.5847 27.6229C40.9559 27.6229 41.2542 27.5516 41.4796 27.4091C41.7083 27.2633 41.8243 27.076 41.8276 26.8473C41.8243 26.6551 41.7431 26.4976 41.584 26.375C41.4249 26.2491 41.1796 26.1529 40.8482 26.0866L39.5257 25.8232C38.78 25.674 38.2248 25.4155 37.8603 25.0476C37.499 24.6797 37.3184 24.2107 37.3184 23.6406C37.3184 23.1501 37.4509 22.7275 37.7161 22.3729C37.9846 22.0182 38.3607 21.7448 38.8446 21.5526C39.3319 21.3603 39.9019 21.2642 40.5549 21.2642C41.5194 21.2642 42.2784 21.468 42.8319 21.8757C43.3887 22.2834 43.7135 22.8385 43.8063 23.5412Z" fill="white"/>
</svg>
